<svg id="Grupo_6732" data-name="Grupo 6732" xmlns="http://www.w3.org/2000/svg" xmlns:xlink="http://www.w3.org/1999/xlink" width="3149.392" height="634.248" viewBox="0 0 3149.392 634.248">
  <defs>
    <clipPath id="clip-path">
      <rect id="Rectángulo_801" data-name="Rectángulo 801" width="3149.392" height="634.248" fill="none"/>
    </clipPath>
  </defs>
  <g id="Grupo_6731" data-name="Grupo 6731" clip-path="url(#clip-path)">
    <path id="Trazado_26994" data-name="Trazado 26994" d="M178.715,109.575v415.1a10.42,10.42,0,0,0,15.675,9.046L553.83,326.149a10.419,10.419,0,0,0,0-18.05L194.39,100.55a10.42,10.42,0,0,0-15.635,9.025m79.054,211.066c-15.918-22.406-23.184-52.8-28.046-63.5,7.166,7.469,37.465,25.924,50.008,48.148s27.6,59.74,31.027,66c0-11.663-16.171-54.03-14.675-80.165s13.543-64.975,15.938-77.487c2.2,12.34,17.343,43.923,14.725,77.527s-13.31,73.9-13.512,80.085c3.83-6.4,18.121-48.461,31.027-66s38.4-35.959,50.007-48.148c-8.014,15.008-13.078,45.186-29.1,64.985s-45.5,44.873-50.554,51.241c8.086-4.427,30.26-23.741,55.283-29.047a314.085,314.085,0,0,1,44.318-5.114c-9.591,5.65-22.316,20.9-45.247,26.773s-47.5,8.651-53.3,10.106a71.774,71.774,0,0,1,30.168,7.3,92.252,92.252,0,0,1,17.444,12.239c-9.682-2.112-17.6-1.142-27.126-4.123a129.513,129.513,0,0,1-22.477-14.311c-.859,3.163,1.546,22.366.495,23.548a4.528,4.528,0,0,1-4.336,0c-.9-.7,1.132-14.392.869-23.558-3.881,1.223-12.2,11.9-22.073,13.886s-24.255,3.639-27.9,4.558a135.175,135.175,0,0,1,25.206-16.17c7.812-2.577,19.586-2.517,23.831-4.154a235.173,235.173,0,0,1-54.777-9.308c-22.235-8.2-34.979-23.629-45.247-26.773a158.148,158.148,0,0,1,53.433,8.177c17.09,7.317,41.578,24.872,46.773,26.277-6.8-7.135-36.383-30.593-52.251-52.949"/>
    <path id="Trazado_26995" data-name="Trazado 26995" d="M317.124,0C141.981,0,0,141.981,0,317.124S141.981,634.248,317.124,634.248,634.248,492.266,634.248,317.124C634.053,142.062,492.186.195,317.124,0m0,605.646C157.777,605.646,28.6,476.47,28.6,317.124S157.777,28.6,317.124,28.6,605.646,157.777,605.646,317.124,476.47,605.646,317.124,605.646"/>
    <path id="Trazado_26996" data-name="Trazado 26996" d="M946.177,233.714a74.277,74.277,0,0,0-31.037-6H853.055a5.527,5.527,0,0,0-4.042,1.536,5.887,5.887,0,0,0-1.526,4.336V400.917a5.276,5.276,0,0,0,5.619,5.619h4.6A5.868,5.868,0,0,0,862.04,405a5.513,5.513,0,0,0,1.536-4.042V333.476h51.605a74.218,74.218,0,0,0,31.037-6,45.711,45.711,0,0,0,20.435-17.758,61.909,61.909,0,0,0,0-58.244,45.823,45.823,0,0,0-20.435-17.757m.768,74.728a48.409,48.409,0,0,1-33.079,9.7h-50.33v-75.1h50.33a48.443,48.443,0,0,1,33.079,9.7,41.142,41.142,0,0,1,0,55.7"/>
    <path id="Trazado_26997" data-name="Trazado 26997" d="M1112.107,391.2h-88.139V233.32a5.276,5.276,0,0,0-5.62-5.619H1013.5a5.275,5.275,0,0,0-5.619,5.619V400.907a5.276,5.276,0,0,0,5.619,5.62h98.61a5.9,5.9,0,0,0,4.346-1.537,5.517,5.517,0,0,0,1.536-4.042v-3.831a5.336,5.336,0,0,0-4.728-5.882,5.43,5.43,0,0,0-1.154,0"/>
    <path id="Trazado_26998" data-name="Trazado 26998" d="M1218.62,232.846a8.819,8.819,0,0,0-2.678-3.831,7.645,7.645,0,0,0-4.73-1.283h-8.681a7.645,7.645,0,0,0-4.73,1.283,8.818,8.818,0,0,0-2.678,3.831l-64.682,165.747a8.747,8.747,0,0,0-.516,2.81,5.245,5.245,0,0,0,5.1,5.1h5.114a5.355,5.355,0,0,0,3.962-1.4,5.839,5.839,0,0,0,1.657-2.426l15.928-40.85h90.434l15.837,40.871a11.211,11.211,0,0,0,1.788,2.425,4.913,4.913,0,0,0,3.831,1.4h5.114a5.236,5.236,0,0,0,5.1-5.1,8.909,8.909,0,0,0-.516-2.809Zm-50.866,113.648,39.082-100.651,39.092,100.651Z"/>
    <path id="Trazado_26999" data-name="Trazado 26999" d="M1419.69,227.7h-5.1a5.855,5.855,0,0,0-3.2.9,9.305,9.305,0,0,0-2.678,2.941l-55.435,90.181-55.434-90.181a6.811,6.811,0,0,0-2.547-2.941,6.509,6.509,0,0,0-3.325-.9h-5.114a5.236,5.236,0,0,0-5.1,5.1,3.994,3.994,0,0,0,.384,1.789,10.9,10.9,0,0,1,.637,1.536L1345.1,338.307V400.9a5.276,5.276,0,0,0,5.62,5.62h4.851a5.9,5.9,0,0,0,4.345-1.537,5.513,5.513,0,0,0,1.527-4.042V338.317l62.337-102.177a6.4,6.4,0,0,0,.768-1.536,5.77,5.77,0,0,0,.253-1.789,5.225,5.225,0,0,0-5.1-5.1"/>
    <path id="Trazado_27000" data-name="Trazado 27000" d="M1542.809,264.115a38.407,38.407,0,0,1,27.288-9.581,46.48,46.48,0,0,1,24.781,6.135,35.2,35.2,0,0,1,14.058,22.992,8.085,8.085,0,0,0,2.547,4.73,7.2,7.2,0,0,0,4.6,1.4h24.255a5.663,5.663,0,0,0,3.962-1.526,4.328,4.328,0,0,0,1.405-3.841,53.9,53.9,0,0,0-5.619-23.245,58.008,58.008,0,0,0-15.079-18.778,72.352,72.352,0,0,0-23.508-12.643,98.294,98.294,0,0,0-31.169-4.6,88.051,88.051,0,0,0-39.981,8.308,58.61,58.61,0,0,0-25.267,23.882,82.209,82.209,0,0,0-9.833,37.05q-.254,10.976-.253,22.983t.253,22.487a82.866,82.866,0,0,0,9.7,37.172,58.052,58.052,0,0,0,25.165,23.76,88.7,88.7,0,0,0,40.234,8.308,98.294,98.294,0,0,0,31.169-4.6,72.256,72.256,0,0,0,23.508-12.643A57.89,57.89,0,0,0,1640.1,373.1a53.891,53.891,0,0,0,5.619-23.245,4.314,4.314,0,0,0-1.405-3.84,5.666,5.666,0,0,0-3.962-1.537H1616.1a6.469,6.469,0,0,0-7.116,5.748q-.021.193-.03.387a34.45,34.45,0,0,1-13.926,22.871,46.41,46.41,0,0,1-24.913,6.256,38.343,38.343,0,0,1-27.288-9.581,43.862,43.862,0,0,1-10.986-31.543q-.768-21.971,0-42.922a43.854,43.854,0,0,1,10.986-31.553"/>
    <path id="Trazado_27001" data-name="Trazado 27001" d="M1793.936,312.778a46.924,46.924,0,0,0,9.834-7.155,38.173,38.173,0,0,0,8.429-11.886,39.269,39.269,0,0,0,3.446-16.989,50.724,50.724,0,0,0-6.255-25.549,42.591,42.591,0,0,0-19.294-17.242,78.21,78.21,0,0,0-33.726-6.256h-74.081a5.932,5.932,0,0,0-4.345,1.789,6.234,6.234,0,0,0-1.789,4.6V400.412a6.064,6.064,0,0,0,5.992,6.135c.048,0,.095,0,.142,0h76.123a74.425,74.425,0,0,0,33.473-6.771A47.2,47.2,0,0,0,1812.321,381a53.914,53.914,0,0,0,6.893-27.339,42.8,42.8,0,0,0-7.671-25.549,45.139,45.139,0,0,0-17.616-15.322m-82.268-58.244h40.1a29.41,29.41,0,0,1,20.314,6.135,21.607,21.607,0,0,1,6.772,16.858,22.52,22.52,0,0,1-6.772,16.989,28.3,28.3,0,0,1-20.314,6.519h-40.073Zm63.611,117.388a27.515,27.515,0,0,1-20.951,7.54h-42.63V327.605h42.66a27.915,27.915,0,0,1,20.82,7.408,27.218,27.218,0,0,1,.121,36.919"/>
    <path id="Trazado_27002" data-name="Trazado 27002" d="M1987.72,259.123a54.784,54.784,0,0,0-25.266-23.508,99.662,99.662,0,0,0-42.539-7.924h-62.338a5.933,5.933,0,0,0-4.335,1.789,6.206,6.206,0,0,0-1.789,4.6V400.4a6.064,6.064,0,0,0,5.993,6.135c.047,0,.094,0,.142,0h63.61a101.35,101.35,0,0,0,42.024-7.54,51.01,51.01,0,0,0,24.66-22.992,87.607,87.607,0,0,0,8.681-39.213q.506-10.977.505-19.668t-.505-19.93a80.159,80.159,0,0,0-8.813-38.061m-26.57,63.479q-.132,5.751-.384,13.411a59.625,59.625,0,0,1-4.467,23.882,26.035,26.035,0,0,1-13.138,13.139,56.4,56.4,0,0,1-23.245,4.042h-33.029V257.1H1918.6a36.385,36.385,0,0,1,42.145,40.871q.252,7.409.384,13.139t0,11.491"/>
    <path id="Trazado_27003" data-name="Trazado 27003" d="M2194.379,234.341a103.268,103.268,0,0,0-38.708-6.64h-74.6a6.568,6.568,0,0,0-4.6,1.92,6.232,6.232,0,0,0-2.021,4.73V399.9a6.222,6.222,0,0,0,2.021,4.73,6.573,6.573,0,0,0,4.6,1.921h43.691a6.55,6.55,0,0,0,6.64-6.457q0-.092,0-.183V347.514h24.256a110.948,110.948,0,0,0,38.708-6.135,52.813,52.813,0,0,0,25.67-19.283,57.331,57.331,0,0,0,9.2-33.594,59.163,59.163,0,0,0-9.2-33.978,54.994,54.994,0,0,0-25.67-20.214m-27.288,67.573a18.818,18.818,0,0,1-12.644,4.467h-24.013V269.057h24.013a15.756,15.756,0,0,1,13.8,5.751,22.145,22.145,0,0,1,4.043,13.138,17.343,17.343,0,0,1-5.246,13.927"/>
    <path id="Trazado_27004" data-name="Trazado 27004" d="M2398.876,256.828a65.8,65.8,0,0,0-28.612-23.63,115.072,115.072,0,0,0-84.561,0,64.893,64.893,0,0,0-28.481,23.63,72.33,72.33,0,0,0-11.117,38.324q-.263,11.248-.263,22.608t.263,22.1a72.079,72.079,0,0,0,11.117,38.4,62.774,62.774,0,0,0,28.369,23.114,121.083,121.083,0,0,0,84.8,0,62.81,62.81,0,0,0,28.349-23.114,72.042,72.042,0,0,0,11.117-38.4q.515-10.722.5-22.1t-.5-22.608a70.121,70.121,0,0,0-10.986-38.324m-45.975,81.5a28.3,28.3,0,0,1-7.156,20.82,27.288,27.288,0,0,1-35.373,0,29.373,29.373,0,0,1-7.286-20.82q-.253-10.975-.253-21.324t.253-21.082a35.687,35.687,0,0,1,3.446-15.575,20,20,0,0,1,8.813-8.945,28.246,28.246,0,0,1,12.775-2.809,27.42,27.42,0,0,1,12.643,2.809,20.065,20.065,0,0,1,8.682,8.945,35.838,35.838,0,0,1,3.456,15.575q.5,10.732.505,21.082t-.505,21.324"/>
    <path id="Trazado_27005" data-name="Trazado 27005" d="M2621.645,227.7h-39.6q-7.661,0-8.439,6.387l-12.774,85.583-14.3-45.217a21.916,21.916,0,0,0-2.557-4.6,6.974,6.974,0,0,0-6.135-2.547h-22.234a6.963,6.963,0,0,0-6.135,2.547,14.337,14.337,0,0,0-2.294,4.6l-14.564,45.48L2480.1,234.1q-.768-6.387-8.691-6.387h-39.6a5.055,5.055,0,0,0-3.84,1.668,5.645,5.645,0,0,0-1.536,3.951v1.011l25.579,163.241a13.13,13.13,0,0,0,3.447,6.135,9.881,9.881,0,0,0,7.529,2.81h30.4a9.477,9.477,0,0,0,7.023-2.426,10.81,10.81,0,0,0,2.941-4.214l23.508-62.843,23.245,62.843a15.513,15.513,0,0,0,3.032,4.214,9.1,9.1,0,0,0,6.893,2.426h30.4a10.785,10.785,0,0,0,7.793-2.81,9.438,9.438,0,0,0,3.193-6.135l25.55-163.241a.738.738,0,0,0,.252-.515v-.506a5.679,5.679,0,0,0-5.619-5.619"/>
    <path id="Trazado_27006" data-name="Trazado 27006" d="M2784.088,363.1H2703.1V337.3h73.323a6.854,6.854,0,0,0,4.851-1.91,6.238,6.238,0,0,0,2.022-4.73V303.066a6.226,6.226,0,0,0-2.022-4.73,6.854,6.854,0,0,0-4.851-1.91H2703.1V271.16h78.962a6.636,6.636,0,0,0,4.851-2.022,6.36,6.36,0,0,0,2.022-4.6v-30.2a6.217,6.217,0,0,0-2.022-4.73,6.871,6.871,0,0,0-4.851-1.92H2656.9a6.553,6.553,0,0,0-4.588,1.92,6.2,6.2,0,0,0-2.021,4.73V399.887a6.212,6.212,0,0,0,2.021,4.73,6.54,6.54,0,0,0,4.588,1.91h127.192a6.859,6.859,0,0,0,4.85-1.91,6.217,6.217,0,0,0,2.022-4.73V370a6.983,6.983,0,0,0-6.892-6.893"/>
    <path id="Trazado_27007" data-name="Trazado 27007" d="M2941.245,337.822a58.113,58.113,0,0,0,21.5-19.677,54.37,54.37,0,0,0,8.176-30.4,53.408,53.408,0,0,0-19.8-44.2,85.067,85.067,0,0,0-54.576-15.837h-72.767a6.552,6.552,0,0,0-4.588,1.92,6.2,6.2,0,0,0-2.021,4.73V399.9a6.218,6.218,0,0,0,2.021,4.729,6.536,6.536,0,0,0,4.588,1.911h41.649a6.538,6.538,0,0,0,6.629-6.447c0-.064,0-.129,0-.193V347.049h18.4l25.55,52.625a12.706,12.706,0,0,0,3.315,4.467,10.318,10.318,0,0,0,7.408,2.426h43.085a4.982,4.982,0,0,0,3.83-1.657,5.627,5.627,0,0,0,1.536-3.962,6.326,6.326,0,0,0-.768-2.81Zm-31.673-37.94a16.732,16.732,0,0,1-13.291,4.983h-24.256V269.107h24.256a16,16,0,0,1,13.412,5.357,20.427,20.427,0,0,1,4.214,13.037,18.191,18.191,0,0,1-4.345,12.391"/>
    <path id="Trazado_27008" data-name="Trazado 27008" d="M3142.548,324.047a48.26,48.26,0,0,0-21.85-17.363,153.325,153.325,0,0,0-39.214-10.218q-12.774-2.556-19.93-4.73a24.26,24.26,0,0,1-9.965-4.982,9.1,9.1,0,0,1-2.81-6.64,9.552,9.552,0,0,1,4.6-8.561,24.813,24.813,0,0,1,13.28-2.941,26.818,26.818,0,0,1,13.027,2.81,12.785,12.785,0,0,1,6.388,6.387,13.776,13.776,0,0,0,4.043,3.325,11.384,11.384,0,0,0,5.114,1.011h42.66a5.136,5.136,0,0,0,3.709-1.657,5.421,5.421,0,0,0,1.657-3.962,37.031,37.031,0,0,0-5.366-17.121,59.719,59.719,0,0,0-14.817-16.726,78.432,78.432,0,0,0-23.881-12.643,100.371,100.371,0,0,0-32.574-4.852,98.457,98.457,0,0,0-38.961,7.156,61.049,61.049,0,0,0-26.054,19.92,48.5,48.5,0,0,0-9.328,29.38A47.783,47.783,0,0,0,2999.8,309.1a51.145,51.145,0,0,0,21.85,17.626,136.807,136.807,0,0,0,33.978,9.844q14.047,2.557,22.235,4.851a33.5,33.5,0,0,1,11.623,5.114,8.821,8.821,0,0,1,3.446,7.156,9.764,9.764,0,0,1-6.388,8.813,41.433,41.433,0,0,1-18.131,3.183,40.714,40.714,0,0,1-11.238-1.4,22.9,22.9,0,0,1-7.924-3.83,34.886,34.886,0,0,1-5.366-5.245,25.729,25.729,0,0,0-4.346-3.194,11.583,11.583,0,0,0-5.62-1.142h-40.628a5.235,5.235,0,0,0-5.357,5.11c0,.086,0,.171,0,.256a45.971,45.971,0,0,0,9.328,25.671,61.5,61.5,0,0,0,26.56,19.668,131.688,131.688,0,0,0,86.351.505,66.586,66.586,0,0,0,28.743-20.052,53.372,53.372,0,0,0,3.577-57.991"/>
  </g>
</svg>
